<svg version="1" xmlns="http://www.w3.org/2000/svg" width="312" height="312" viewBox="0 0 234.000000 234.000000"><path d="M66.4 67.7c-5.6 1.9-10.5 6.2-13.4 11.9-2.1 4.1-2.5 6.3-2.4 12.9 0 8.9 1.9 13.8 7.2 18.8 7.3 7 22.3 8.5 32 3.2 2.9-1.5 5.2-3.2 5.2-3.7 0-.4-1.2-2.1-2.6-3.7l-2.6-2.9-4.5 2.4c-7.2 3.8-16.9 2.8-21.5-2.3-2.8-3.1-4.6-8.5-4.4-13.3.4-7.2 3.6-11.8 9.9-14.5 5-2.1 10.3-1.9 15.5.6l4.3 2.1 3-2.8 2.9-2.8-2.7-2.2c-6.2-5-17.3-6.6-25.9-3.7zM177.5 68.4c-6.3 3.2-10.3 10.6-5.6 10.6 1.3 0 2-.9 2.4-3 1.5-7.3 20.4-9.2 26.6-2.6 3 3.2 3.1 8.1.4 11.3-3.6 4-5.6 4.5-20 5.2-.7.1-1 .8-.7 1.6.5 1.1 2.2 1.5 6.7 1.5 11.1 0 18.7 6 16.6 13.2-1.9 6.7-9.8 9.4-22.1 7.4-5-.8-8.8-4.1-8.8-7.6 0-1-.6-1.7-1.5-1.6-2.5.4-2.7 1.2-1.2 4.8 2.3 5.4 7.3 8 16.5 8.4 12.9.5 20.3-4.2 20.8-13.3.2-3.4-.3-5-2.4-7.4-1.4-1.8-3.9-3.7-5.5-4.4l-2.9-1.2 3.1-1.3c5.1-2.1 7.6-6.8 7.2-13.2-.2-2.5-5-7.7-8.5-9.2-1.7-.7-6-1.4-9.6-1.5-5.2-.1-7.5.3-11.5 2.3zM1 92.1v25.1l13.8-.4c15.6-.4 19.5-1.7 25.1-8.5 8-9.6 6.9-26.5-2.2-35-5.2-4.9-9.7-6.1-23.9-6.2L1 66.9v25.2zm27.9-14c4.9 3 6.6 6.5 6.6 13.9 0 11.3-5.8 16.3-18.2 15.8l-6.8-.3V75.9l7.7.2c5.4.1 8.6.7 10.7 2zM121 72.6c-2.5 3.1-5.2 6.3-6 7.2-11.1 12.2-18 21.4-17.8 23.6l.2 2.6h15.3c17 0 15.6-.6 15.5 7.2-.1 3.1.2 3.8 1.8 3.8 1.7 0 2-.7 2-5.5 0-5.4 0-5.5 3-5.5 2.3 0 3-.4 3-2s-.7-2-3-2h-3V67h-3.2c-2.8.1-4.1 1-7.8 5.6zm7.4 14.3c-.1 7.8-.4 14.4-.6 14.7-.3.2-6.4.3-13.6.2l-13.1-.3 3.7-4.2c2-2.3 4.4-5 5.2-6 9.7-11.8 17.4-20.2 17.9-19.4.3.5.5 7.3.5 15zM142.2 68.7c.3 1.4 1.3 1.8 4.6 1.7h4.2v43.3l-4.2-.1c-3.3-.1-4.3.3-4.6 1.6-.3 1.6.7 1.8 10.3 1.8 9.5 0 10.6-.2 10.3-1.7-.2-1.3-1.4-1.7-4.3-1.8h-4V67h-6.3c-5.5 0-6.3.2-6 1.7zM212.2 68.7c.3 1.4 1.3 1.8 4.6 1.7l4.2-.1v43.5l-4.5-.3c-3.8-.2-4.5.1-4.5 1.7 0 1.6 1 1.8 10.5 1.8 8.7 0 10.5-.3 10.5-1.5 0-1.5-.4-1.7-5.5-1.9l-3-.1-.1-22c-.1-12.1-.2-22.6-.3-23.3-.1-.8-2-1.2-6.2-1.2-5.2 0-6 .2-5.7 1.7z"/><path d="M.1 149v30H233v-60H.1v30z"/></svg>